<svg
  xmlns="http://www.w3.org/2000/svg"
  version="1.1"
  viewBox="0 0 88.8 103.75"
  fill="#fff"
>
  <path d="M34.2,41c-0.6-1.6-1.4-2.5-1.5-2.5c-0.5-0.5-1.4-0.5-1.9,0c-0.5,0.5-0.5,1.4,0,2c0.1,0.1,1.7,1.8,1.3,5.7  c-0.1,0.8,0.5,1.4,1.3,1.5c0,0,0.1,0,0.1,0c0.7,0,1.3-0.6,1.4-1.3c0.1-1,0-1.8,0-2.6c3.1,0.1,4.5,3.8,4.6,4c0.2,0.6,0.7,0.9,1.3,0.9  c0.2,0,0.3,0,0.5-0.1c0.7-0.3,1.1-1.1,0.8-1.8C41.2,44.5,38.6,40.6,34.2,41z" />
  <path d="M29.8,53.4c0.4-0.7,0.2-1.5-0.4-1.9c-0.7-0.4-1.5-0.2-1.9,0.4c-1.2,1.9-2.6,5.9,0.3,8.2c0.3,0.2,0.6,0.3,0.9,0.3  c0.4,0,0.8-0.2,1.1-0.5c0.5-0.6,0.4-1.5-0.2-2C27.8,56.6,29.7,53.5,29.8,53.4z" />
  <path d="M57.4,53.4c-0.8,0.1-1.3,0.8-1.2,1.5c0.2,1.3-0.1,2.3-0.7,3.1c-1.1,1.3-3.3,1.3-3.3,1.3c-0.8,0-1.4,0.6-1.4,1.4  c0,0.8,0.6,1.4,1.4,1.4c0,0,0,0,0,0c0.2,0,3.4,0,5.4-2.2c1.2-1.3,1.7-3.1,1.4-5.3C58.9,53.9,58.1,53.3,57.4,53.4z" />
  <path d="M69.4,41c0.6-4.6-0.4-8-2.9-10.2c-3.9-3.4-10.2-2.7-12.9-2.1c0,0,0,0,0,0c-0.1,0-0.2,0-0.3,0.1c-2.6-3.5-5.8-5.5-9.6-5.9  c-6.9-0.9-13.3,3.6-15.4,5.1c-4-1.2-7.2-1-9.6,0.8c-3.6,2.6-4.2,7.5-4.3,9.5C11,40.4,9,44.3,9,48.3c0,4.5,2.4,8.7,6.4,10.9l1.6,0.9  c3.2,5.2,6.9,7.9,11,8.1c5.1,0.2,9.4-3.5,11.6-5.8c2.4,5,5,7.8,8.1,8.7c0.8,0.2,1.6,0.4,2.4,0.4c0.9,0,1.8-0.1,2.8-0.4  c1.4,2.9,5.7,10.1,13,10.1c0.7,0,1.5-0.1,2.3-0.2c0.3-0.1,0.6-0.2,0.8-0.5c0.3-0.4,3.3-4.3,2.8-7.9c-0.2-1.1-0.6-2.1-1.4-2.8  c0.7-2,0.3-4.1-0.2-5.4c3.6-1.7,5.8-3.9,6.6-6.7C78.8,50.7,71.5,43.1,69.4,41z M67.1,78.3c-6.2,0.8-10.1-5.4-11.5-8.2  c1.9-0.9,3.9-2,6-3.3c2.3-0.4,4.3-0.9,6-1.5c0.3,0.9,0.6,2.2,0.1,3.5c-0.4,1.2-1.5,2.1-3.1,2.7c-0.7,0.3-1.1,1.1-0.8,1.8  c0.2,0.5,0.7,0.9,1.3,0.9c0.2,0,0.3,0,0.5-0.1c1.3-0.5,2.3-1.1,3.1-1.9c0.1,0.2,0.2,0.5,0.3,0.8C69.3,74.7,67.9,77.1,67.1,78.3z   M74.1,56.8c-0.8,2.8-3.8,4.9-8.9,6.3c0.9-1.5,1.3-2.7,1.3-2.8c0.2-0.7-0.2-1.5-1-1.7c-0.7-0.2-1.5,0.2-1.7,1c0,0-0.9,3.1-3.5,4.7  c0,0,0,0,0,0c0,0,0,0,0,0c-4.5,2.9-8.6,5.1-11.7,4.2c-2.5-0.8-4.8-3.6-7-8.5l2-2.6c1.9,0,4.1-0.7,6.1-2.5c0.6-0.5,0.6-1.4,0.1-2  c-0.5-0.6-1.4-0.6-2-0.1c-3.7,3.4-7.6,1-7.8,0.9c-0.6-0.4-1.5-0.2-1.9,0.4c-0.4,0.7-0.2,1.5,0.4,1.9c0.5,0.3,1.2,0.6,2,0.9l-2.3,3.1  c-1.6,1.8-5.5,5.7-9.9,5.5c-3.2-0.1-6.2-2.5-8.9-6.9c-0.5-1.6-1.2-4.3-1.3-5c-0.1-0.8-0.8-1.3-1.6-1.1c-0.8,0.1-1.3,0.8-1.1,1.6  c0.1,0.4,0.3,1.2,0.5,2.1c-2.5-1.8-3.9-4.7-3.9-7.8c0-2.8,1.2-5.4,3.3-7.2c0.7,1.2,1.8,2.4,3.6,3C18.3,44.9,18,45.8,18,47  c0,0.8,0.6,1.4,1.4,1.4c0.8,0,1.4-0.6,1.4-1.4c0-2.8,2.4-3.4,2.7-3.4c0.8-0.1,1.3-0.9,1.1-1.6c-0.1-0.8-0.8-1.3-1.6-1.1  c-0.6,0.1-1.3,0.4-2.1,0.8c-0.1,0-0.2-0.1-0.4-0.1c-2.6,0-3.3-2.3-3.5-2.8c0-0.8,0.2-5.7,3.2-7.8c1.8-1.3,4.5-1.4,7.8-0.2  c0,0,0,0,0,0c0,0,0,0,0,0c0.1,0,1.6,0.5,3.1,2.9c0.3,0.4,0.7,0.7,1.2,0.7c0.2,0,0.5-0.1,0.7-0.2c0.7-0.4,0.9-1.3,0.5-1.9  c-0.8-1.4-1.8-2.3-2.6-2.9c2.4-1.7,7.3-4.4,12.2-3.8c2.7,0.3,5,1.7,7,4c-1.2,0.4-2.4,1.1-3.1,1.9c-1.4-0.2-2.7,0-3.7,0.2  c-0.7,0.2-1.2,0.9-1,1.7c0.2,0.7,0.9,1.2,1.7,1c0,0,1.6-0.4,3-0.1c0.1,0.1,0.2,0.1,0.4,0.2c0.1,0,0.2,0,0.2,0  c0.7,0.3,1.4,0.7,1.7,1.5c0.2,0.5,0.7,0.9,1.3,0.9c0.2,0,0.3,0,0.5-0.1c0.7-0.3,1.1-1.1,0.8-1.8c-0.4-1.1-1.1-1.8-1.8-2.3  c0.7-0.3,1.7-0.6,2.7-0.9c0,0,0.1,0,0.1,0c0.1,0,7.8-2.1,11.6,1.2c1.9,1.6,2.5,4.5,1.9,8.4c0,0.2-0.7,2.5-4.7,4.5  c-0.7,0.3-1,1.2-0.6,1.9c0.2,0.5,0.7,0.8,1.3,0.8c0.2,0,0.4,0,0.6-0.1c2.9-1.4,4.4-3.1,5.3-4.3C71.1,46.9,75.4,52.5,74.1,56.8z" />
  <ellipse cx="43.1" cy="95.7" rx="18.1" ry="3.3" />
  <path d="M35.8,12.7c0,0,0.1,0,0.1,0c0.8-0.1,1.3-0.7,1.3-1.5l-0.7-9.5C36.4,1,35.7,0.4,35,0.5c-0.8,0.1-1.3,0.7-1.3,1.5l0.7,9.5  C34.5,12.1,35.1,12.7,35.8,12.7z" />
  <path d="M43.5,13c0.1,0,0.1,0,0.2,0c0.7,0,1.3-0.5,1.4-1.2l0.7-4.5c0.1-0.8-0.4-1.5-1.2-1.6c-0.8-0.1-1.5,0.4-1.6,1.2l-0.7,4.5  C42.2,12.1,42.8,12.8,43.5,13z" />
  <path d="M28.5,12.7c0.2,0.5,0.7,0.8,1.3,0.8c0.2,0,0.4,0,0.6-0.1c0.7-0.3,1-1.1,0.7-1.8l-1.9-4.3c-0.3-0.7-1.1-1-1.8-0.7  c-0.7,0.3-1,1.1-0.7,1.8L28.5,12.7z" />
  <path d="M17,11.8c1.6,0.9,2.2,2.9,1.3,4.5c-0.1,0.1-0.1,0.3-0.1,0.5c0,0.3,0.2,0.6,0.5,0.8c0.1,0.1,0.3,0.1,0.5,0.1  c0.3,0,0.6-0.2,0.8-0.5c0.9-1.6,2.9-2.2,4.5-1.3c0.4,0.2,1,0.1,1.3-0.4c0.1-0.1,0.1-0.3,0.1-0.5c0-0.3-0.2-0.6-0.5-0.8  c-0.8-0.4-1.3-1.1-1.6-2c-0.2-0.9-0.1-1.8,0.3-2.5c0.1-0.1,0.1-0.3,0.1-0.5c0-0.3-0.2-0.6-0.5-0.8c-0.5-0.3-1-0.1-1.3,0.4  c-0.4,0.8-1.1,1.3-2,1.6c-0.9,0.2-1.8,0.1-2.5-0.3c-0.5-0.3-1-0.1-1.3,0.4c-0.1,0.1-0.1,0.3-0.1,0.5C16.6,11.4,16.7,11.7,17,11.8z   M21,12.3c0.3-0.1,0.6-0.2,0.9-0.3c0,0.3,0.1,0.6,0.2,0.9c0.1,0.3,0.2,0.6,0.3,0.9c-0.6,0.1-1.2,0.2-1.8,0.5  c-0.1-0.6-0.2-1.2-0.5-1.8C20.4,12.5,20.7,12.4,21,12.3z" />
  <path d="M49.5,7.5c1.6,0.9,2.2,2.9,1.3,4.5c-0.1,0.1-0.1,0.3-0.1,0.5c0,0.3,0.2,0.6,0.5,0.8c0.1,0.1,0.3,0.1,0.5,0.1  c0.3,0,0.6-0.2,0.8-0.5c0.9-1.6,2.9-2.2,4.5-1.3c0.4,0.2,1,0.1,1.3-0.4c0.1-0.1,0.1-0.3,0.1-0.5c0-0.3-0.2-0.6-0.5-0.8  c-0.8-0.4-1.3-1.1-1.6-2s-0.1-1.8,0.3-2.5c0.1-0.1,0.1-0.3,0.1-0.5c0-0.3-0.2-0.6-0.5-0.8c-0.4-0.3-1-0.1-1.3,0.4  c-0.4,0.8-1.1,1.3-2,1.6c-0.9,0.2-1.8,0.1-2.5-0.3c-0.4-0.3-1-0.1-1.3,0.4C49.1,6.4,49,6.5,49,6.7C49,7,49.2,7.3,49.5,7.5z M53.5,8  c0.3-0.1,0.6-0.2,0.9-0.3c0,0.3,0.1,0.6,0.2,0.9c0.1,0.3,0.2,0.6,0.3,0.9c-0.6,0.1-1.2,0.2-1.8,0.5c-0.1-0.6-0.2-1.2-0.5-1.8  C52.9,8.1,53.2,8.1,53.5,8z" />
  <path d="M59.8,2.7c0.8,0.4,1.1,1.4,0.6,2.2c-0.1,0.1-0.1,0.3-0.1,0.5c0,0.3,0.2,0.6,0.5,0.8c0.1,0.1,0.3,0.1,0.5,0.1  c0.3,0,0.6-0.2,0.8-0.5c0.2-0.4,0.6-0.7,1-0.8C63.4,5,63.9,5,64.3,5.2c0.4,0.2,1,0.1,1.3-0.4c0.1-0.1,0.1-0.3,0.1-0.5  c0-0.3-0.2-0.6-0.5-0.8c-0.4-0.2-0.7-0.6-0.8-1c-0.1-0.4-0.1-0.9,0.1-1.2c0.1-0.1,0.1-0.3,0.1-0.5c0-0.3-0.2-0.6-0.5-0.8  c-0.4-0.3-1-0.1-1.3,0.4c-0.2,0.4-0.6,0.7-1,0.8c-0.4,0.1-0.9,0.1-1.2-0.1c-0.4-0.3-1-0.1-1.3,0.4c-0.1,0.1-0.1,0.3-0.1,0.5  C59.3,2.2,59.5,2.6,59.8,2.7z M62.5,3c0,0,0.1,0,0.1,0c0,0,0,0.1,0,0.1c0,0,0,0.1,0,0.1c0,0-0.1,0-0.1,0c0,0-0.1,0-0.1,0  c0-0.1,0-0.2-0.1-0.3C62.4,3.1,62.4,3,62.5,3z" />
  <path d="M64.1,11.3c-0.4,0.8-1.4,1.1-2.2,0.6c-0.4-0.3-1-0.1-1.3,0.4c-0.1,0.1-0.1,0.3-0.1,0.5c0,0.3,0.2,0.6,0.5,0.8  c0.4,0.2,0.7,0.6,0.8,1c0.1,0.4,0.1,0.9-0.1,1.2c-0.1,0.1-0.1,0.3-0.1,0.5c0,0.3,0.2,0.6,0.5,0.8c0.1,0.1,0.3,0.1,0.5,0.1  c0.3,0,0.6-0.2,0.8-0.5c0.2-0.4,0.6-0.7,1-0.8c0.4-0.1,0.9-0.1,1.2,0.1c0.4,0.2,1,0.1,1.3-0.4c0.1-0.1,0.1-0.3,0.1-0.5  c0-0.3-0.2-0.6-0.5-0.8c-0.8-0.4-1.1-1.4-0.6-2.2c0.1-0.1,0.1-0.3,0.1-0.5c0-0.3-0.2-0.6-0.5-0.8C64.9,10.7,64.4,10.9,64.1,11.3z   M63.7,14.1c0,0-0.1,0-0.1,0c0,0,0-0.1,0-0.1c0,0,0-0.1,0-0.1c0.1,0,0.2,0,0.3-0.1c0,0.1,0,0.2,0.1,0.3  C63.8,14.1,63.8,14.1,63.7,14.1z" />
  <path d="M86.9,51.2c-0.8-0.4-1.1-1.4-0.6-2.2c0.1-0.1,0.1-0.3,0.1-0.5c0-0.3-0.2-0.6-0.5-0.8c-0.4-0.3-1-0.1-1.3,0.4  c-0.4,0.8-1.4,1.1-2.2,0.6c-0.4-0.2-1-0.1-1.3,0.4c-0.1,0.1-0.1,0.3-0.1,0.5c0,0.3,0.2,0.6,0.5,0.8c0.8,0.4,1.1,1.4,0.6,2.2  c-0.1,0.1-0.1,0.3-0.1,0.5c0,0.3,0.2,0.6,0.5,0.8c0.1,0.1,0.3,0.1,0.5,0.1c0.3,0,0.6-0.2,0.8-0.5c0.2-0.4,0.6-0.7,1-0.8  s0.9-0.1,1.2,0.1c0.4,0.2,1,0.1,1.3-0.4c0.1-0.1,0.1-0.3,0.1-0.5C87.4,51.7,87.2,51.4,86.9,51.2z M84.3,50.9c0,0-0.1,0-0.1,0  c0-0.1,0-0.2-0.1-0.3c0.1,0,0.2,0,0.3-0.1c0,0.1,0,0.2,0.1,0.3C84.4,50.9,84.3,50.9,84.3,50.9z" />
  <path d="M88.4,41.5c-1.6-0.9-2.2-2.9-1.3-4.5c0.1-0.1,0.1-0.3,0.1-0.5c0-0.3-0.2-0.6-0.5-0.8c-0.4-0.2-1-0.1-1.3,0.4  c-0.4,0.8-1.1,1.3-2,1.6c-0.9,0.2-1.8,0.1-2.5-0.3c-0.4-0.3-1-0.1-1.3,0.4c-0.1,0.1-0.1,0.3-0.1,0.5c0,0.3,0.2,0.6,0.5,0.8  c1.6,0.9,2.2,2.9,1.3,4.5c-0.1,0.1-0.1,0.3-0.1,0.5c0,0.3,0.2,0.6,0.5,0.8c0.1,0.1,0.3,0.1,0.5,0.1c0.3,0,0.6-0.2,0.8-0.5  c0.9-1.6,2.9-2.2,4.5-1.3c0.4,0.2,1,0.1,1.3-0.4c0.1-0.1,0.1-0.3,0.1-0.5C88.8,42,88.7,41.7,88.4,41.5z M83.6,41.4  c-0.1-0.6-0.2-1.2-0.5-1.8c0.3,0,0.6-0.1,0.9-0.2c0.3-0.1,0.6-0.2,0.9-0.3c0.1,0.6,0.2,1.2,0.5,1.8C84.7,40.9,84.1,41.1,83.6,41.4z" />
  <path d="M10.4,28c0.5-0.6,0.4-1.5-0.2-2l-7.2-6.2c-0.6-0.5-1.5-0.4-2,0.2c-0.5,0.6-0.4,1.5,0.2,2l7.2,6.2c0.3,0.2,0.6,0.3,0.9,0.3  C9.7,28.5,10.1,28.3,10.4,28z" />
  <path d="M14,22.5c0.3,0.4,0.7,0.6,1.1,0.6c0.3,0,0.6-0.1,0.8-0.3c0.6-0.5,0.8-1.3,0.3-1.9l-2.7-3.7c-0.5-0.6-1.3-0.8-1.9-0.3  c-0.6,0.5-0.8,1.3-0.3,1.9L14,22.5z" />
  <path d="M6.2,30.7L1.9,29c-0.7-0.3-1.5,0.1-1.8,0.8c-0.3,0.7,0.1,1.5,0.8,1.8l4.3,1.7c0.2,0.1,0.3,0.1,0.5,0.1  c0.6,0,1.1-0.3,1.3-0.9C7.3,31.7,7,30.9,6.2,30.7z" />
  <path d="M74.7,25.1c0.3,0.4,0.7,0.6,1.2,0.6c0.3,0,0.5-0.1,0.8-0.2l7.8-5.3c0.6-0.4,0.8-1.3,0.4-1.9c-0.4-0.6-1.3-0.8-1.9-0.4  l-7.8,5.3C74.4,23.6,74.3,24.5,74.7,25.1z" />
  <path d="M84.3,31c0.7-0.3,1.1-1.1,0.8-1.8c-0.3-0.7-1.1-1.1-1.8-0.8L79,30c-0.7,0.3-1.1,1.1-0.8,1.8c0.2,0.6,0.7,0.9,1.3,0.9  c0.2,0,0.3,0,0.5-0.1L84.3,31z" />
  <path d="M72.1,20.9c0.4,0,0.8-0.2,1.1-0.6l2.8-3.7c0.5-0.6,0.3-1.5-0.3-2s-1.5-0.3-2,0.3L71,18.7c-0.5,0.6-0.3,1.5,0.3,2  C71.5,20.8,71.8,20.9,72.1,20.9z" />
</svg>
